<svg width="416" height="80" viewBox="0 0 416 80" fill="none" xmlns="http://www.w3.org/2000/svg">
<path d="M41.9716 79.0297C41.6512 79.0297 41.3309 79.0297 41.0106 79.0297C19.548 79.0297 2.14307 61.5029 2.14307 39.8901C2.14307 18.2773 19.548 0.750488 41.0106 0.750488C41.3309 0.750488 41.6512 0.750488 41.9716 0.750488C30.5462 9.89023 23.1785 24.0837 23.1785 39.8901C23.1785 55.6965 30.5462 69.8899 41.9716 79.0297Z" fill="#1A1A1A"/>
<path d="M73.4721 79.033C73.2586 79.033 72.9382 79.033 72.6179 79.033C66.9586 79.033 61.6197 77.8502 56.8146 75.5921C43.2537 69.5707 33.8572 55.8073 33.8572 39.8934C33.8572 23.9795 43.3605 10.2161 56.9214 4.19463C61.7264 2.0441 67.0654 0.753784 72.7247 0.753784C72.9382 0.753784 73.2586 0.753784 73.5789 0.753784C70.4823 3.22689 67.7061 6.1301 65.2501 9.24837C58.7366 17.7429 54.7858 28.3881 54.7858 39.8934C54.7858 51.3987 58.7366 62.0438 65.2501 70.5384C67.5993 73.6567 70.3755 76.5599 73.4721 79.033Z" fill="#B43000"/>
<path d="M143.091 39.8934C143.091 61.5062 125.686 79.033 104.224 79.033C104.01 79.033 103.69 79.033 103.37 79.033C100.7 78.9255 98.0308 78.6029 95.4681 78.0652C93.0122 77.5276 90.663 76.6674 88.4207 75.6997C82.0139 72.904 76.5682 68.3879 72.6174 62.689C68.0259 56.2374 65.3564 48.388 65.3564 39.8934C65.3564 31.3988 68.0259 23.5494 72.6174 17.0978C76.675 11.5064 82.1207 6.99031 88.4207 4.0871C90.663 3.11936 93.0122 2.25915 95.4681 1.72152C98.0308 1.18389 100.7 0.753784 103.37 0.753784C103.583 0.753784 103.904 0.753784 104.224 0.753784C125.686 0.753784 143.091 18.2806 143.091 39.8934Z" fill="#FF652E"/>
<path d="M212.314 15L200.832 53.7348H194.506L186.231 26.5685L177.912 53.7348H171.673L160.147 15H166.82L175.225 43.8995L183.068 17.2097H189.437L197.279 43.8995L205.598 15H212.314Z" fill="#FF652E"/>
<path d="M233.588 28.6048C231.551 26.7418 228.692 25.8319 224.965 25.8319C222.539 25.8319 220.373 26.1352 218.38 26.9151C216.387 27.6516 214.48 28.8215 212.747 30.4679L216.17 34.5407C217.383 33.3275 218.683 32.461 220.113 31.8977C221.499 31.3345 222.972 31.0312 224.446 31.0312C226.352 31.0312 227.868 31.5078 228.952 32.4177C230.035 33.2842 230.555 34.6274 230.555 36.4471V37.227H222.452C221.153 37.227 219.896 37.3137 218.683 37.5303C217.513 37.7903 216.473 38.1802 215.563 38.7435C214.524 39.3934 213.657 40.26 213.007 41.3865C212.357 42.513 212.054 43.8128 212.054 45.3293C212.054 47.1057 212.53 48.6655 213.397 50.0086C214.22 51.3085 215.477 52.3916 217.037 53.1282C218.596 53.8648 220.416 54.2547 222.452 54.2547C224.012 54.2547 225.529 53.9514 226.872 53.3015C228.172 52.6516 229.342 51.6984 230.295 50.3553C230.381 50.2253 230.511 50.0953 230.555 49.8786L230.945 53.7781H236.621V36.4904C236.664 33.1109 235.667 30.5113 233.588 28.6048ZM229.558 45.8925C228.908 46.9324 228.042 47.7556 226.915 48.3622C225.832 48.9254 224.619 49.2287 223.319 49.2287C221.803 49.2287 220.589 48.8388 219.679 48.1889C218.77 47.4956 218.336 46.5858 218.336 45.3726C218.336 44.766 218.423 44.2461 218.64 43.8128C218.9 43.3795 219.203 43.0329 219.55 42.6863C220.069 42.383 220.676 42.123 221.369 41.993C222.019 41.9064 222.669 41.8197 223.362 41.8197H230.598V42.383C230.555 43.6828 230.251 44.8093 229.558 45.8925Z" fill="#FF652E"/>
<path d="M243.856 65L249.315 51.8718L238.874 26.3085H245.676L252.608 45.7193L259.671 26.3085H266.343L250.572 65H243.856Z" fill="#FF652E"/>
<path d="M289.567 28.6048C287.53 26.7418 284.627 25.8319 280.901 25.8319C278.518 25.8319 276.352 26.1352 274.359 26.9151C272.366 27.6516 270.459 28.8215 268.683 30.4679L272.149 34.5407C273.319 33.3275 274.662 32.461 276.049 31.8977C277.478 31.3345 278.952 31.0312 280.468 31.0312C282.374 31.0312 283.891 31.5078 284.974 32.4177C286.057 33.2842 286.577 34.6274 286.577 36.4471V37.227H278.432C277.132 37.227 275.919 37.3137 274.705 37.5303C273.492 37.7903 272.496 38.1802 271.586 38.7435C270.503 39.3934 269.679 40.26 269.03 41.3865C268.38 42.513 268.076 43.8128 268.076 45.3293C268.076 47.1057 268.553 48.6655 269.376 50.0086C270.243 51.3085 271.499 52.3916 273.102 53.1282C274.662 53.8648 276.482 54.2547 278.518 54.2547C280.078 54.2547 281.595 53.9514 282.851 53.3015C284.194 52.6516 285.364 51.6984 286.317 50.3553C286.404 50.2253 286.534 50.0953 286.577 49.8786L286.967 53.7781H292.643V36.4904C292.686 33.1109 291.603 30.5113 289.567 28.6048ZM286.534 42.383C286.534 43.6828 286.144 44.8527 285.494 45.8925C284.844 46.9324 283.978 47.7556 282.851 48.3622C281.724 48.9254 280.555 49.2287 279.211 49.2287C277.738 49.2287 276.482 48.8388 275.615 48.1889C274.705 47.4956 274.229 46.5858 274.229 45.3726C274.229 44.766 274.359 44.2461 274.619 43.8128C274.835 43.3795 275.182 43.0329 275.529 42.6863C276.049 42.383 276.655 42.123 277.305 41.993C277.998 41.9064 278.648 41.8197 279.341 41.8197H286.577V42.383H286.534Z" fill="#FF652E"/>
<path d="M298.608 53.7348V15H311.823C315.593 15 318.582 15.8666 320.749 17.5997C322.915 19.3328 323.998 21.7158 323.998 24.7487C323.998 26.6118 323.608 28.2149 322.828 29.6014C322.049 30.9879 320.965 32.1144 319.536 32.8943C321.702 33.5875 323.305 34.7574 324.388 36.4038C325.471 38.0502 325.991 40.0866 325.991 42.513C325.991 46.0225 324.908 48.7955 322.698 50.7452C320.489 52.7383 317.412 53.7348 313.426 53.7348H298.608ZM305.064 30.8145H312.3C313.946 30.8145 315.246 30.3813 316.199 29.4714C317.153 28.5615 317.629 27.305 317.629 25.7019C317.629 24.1854 317.109 23.0156 316.113 22.149C315.073 21.2825 313.686 20.8925 311.867 20.8925H305.107V30.8145H305.064ZM312.95 47.8423C317.412 47.8423 319.622 45.9792 319.622 42.2097C319.622 40.4333 319.102 39.0468 318.019 38.0502C316.979 37.0537 315.506 36.5771 313.6 36.5771H305.021V47.8423H312.95Z" fill="#262626"/>
<path d="M351.468 28.6048C349.431 26.7418 346.572 25.8319 342.846 25.8319C340.463 25.8319 338.253 26.1352 336.26 26.9151C334.267 27.6516 332.36 28.8215 330.627 30.4679L334.05 34.5407C335.263 33.3275 336.563 32.461 337.993 31.8977C339.423 31.3345 340.853 31.0312 342.326 31.0312C344.275 31.0312 345.749 31.5078 346.832 32.4177C347.915 33.2842 348.435 34.6274 348.435 36.4471V37.227H340.333C339.033 37.227 337.776 37.3137 336.563 37.5303C335.393 37.7903 334.354 38.1802 333.444 38.7435C332.404 39.3934 331.581 40.26 330.931 41.3865C330.281 42.513 329.977 43.8128 329.977 45.3293C329.977 47.1057 330.411 48.6655 331.277 50.0086C332.144 51.3085 333.357 52.3916 334.917 53.1282C336.477 53.8648 338.296 54.2547 340.333 54.2547C341.892 54.2547 343.409 53.9514 344.752 53.3015C346.095 52.6516 347.222 51.6984 348.175 50.3553C348.262 50.2253 348.392 50.0953 348.478 49.8786L348.868 53.7781H354.501V36.4904C354.544 33.1109 353.548 30.5113 351.468 28.6048ZM347.438 45.8925C346.788 46.9324 345.922 47.7556 344.795 48.3622C343.712 48.9254 342.542 49.2287 341.199 49.2287C339.683 49.2287 338.47 48.8388 337.56 48.1889C336.693 47.4956 336.217 46.5858 336.217 45.3726C336.217 44.766 336.303 44.2461 336.607 43.8128C336.823 43.3795 337.126 43.0329 337.473 42.6863C338.036 42.383 338.6 42.123 339.293 41.993C339.943 41.9064 340.636 41.8197 341.286 41.8197H348.522V42.383C348.435 43.6828 348.132 44.8093 347.438 45.8925Z" fill="#262626"/>
<path d="M384.7 35.9705V53.6915H378.548V38.2669C378.548 35.8405 378.114 34.0641 377.248 32.8943C376.338 31.7244 374.995 31.1612 373.132 31.1612C371.745 31.1612 370.575 31.4645 369.665 32.1144C368.712 32.7643 368.019 33.7608 367.542 35.104C367.022 36.4905 366.806 38.2235 366.806 40.3466V53.6915H360.653V26.2652H366.806V30.1213C367.066 29.6014 367.456 29.1681 367.846 28.7348C368.712 27.7816 369.839 27.0017 371.095 26.5251C372.308 26.0485 373.652 25.8319 374.995 25.8319C378.114 25.8319 380.497 26.6984 382.23 28.4749C383.834 30.2513 384.7 32.721 384.7 35.9705Z" fill="#262626"/>
<path d="M415.853 53.7348H408.487L400.211 40.6499L396.095 45.2426V53.7348H389.899V15H396.095V37.357L406.71 26.3085H414.596L404.717 36.5338L415.853 53.7348Z" fill="#262626"/>
</svg>
