<svg width="225" height="35" viewBox="0 0 225 35" fill="none" xmlns="http://www.w3.org/2000/svg">
<path d="M30.2041 34.7333H0.385254V0.297941H22.7053V0.266663H30.2335V14.1096H22.7053V8.32875H7.91347V16.172H25.0872V29.2649H5.50209V22.7652C5.50209 22.0465 6.06083 21.4842 6.70779 21.4842C7.38415 21.4842 7.91347 22.0465 7.91347 22.7652V26.7025H22.6759V18.7343H5.50209V5.76635H25.1166V11.5472H27.8221V2.82906H25.1166V2.86034H2.79664V32.1709H27.7927V22.7652C27.7927 22.0465 28.322 21.4842 28.9984 21.4842C29.6748 21.4842 30.2041 22.0465 30.2041 22.7652V34.7333Z" fill="#00644F"/>
<path d="M56.9668 9.70361V12.8284H47.1742V20.1091H56.9668V23.2339H44.2335V9.70361H56.9668Z" fill="#0F0F15"/>
<path d="M76.699 23.2339H73.7583V18.0156H66.9064V23.2339H63.9657V9.70358H66.9064V14.8908H73.7583V9.70358H76.699V23.2339Z" fill="#0F0F15"/>
<path d="M86.6386 23.2339H83.6979V9.70358H86.6386V23.2339Z" fill="#0F0F15"/>
<path d="M106.371 9.70358V12.8284H96.5783V14.8908H106.371V23.2339H93.6376V20.1091H103.43V18.0156H93.6376V9.70358H106.371Z" fill="#0F0F15"/>
<path fill-rule="evenodd" clip-rule="evenodd" d="M121.31 23.2339H113.37V9.70358H126.132V23.2339H125.103L126.662 25.2963H122.956L121.31 23.2339ZM116.31 12.8284V20.1404H123.162V12.8284H116.31Z" fill="#0F0F15"/>
<path d="M142.924 20.1091V9.70358H145.865V23.2339H133.131V9.70358H136.043V20.1091H142.924Z" fill="#0F0F15"/>
<path fill-rule="evenodd" clip-rule="evenodd" d="M165.597 23.2339H162.656V18.0156H155.804V23.2339H152.864V9.70358H165.597V23.2339ZM162.656 14.8908V12.8284H155.804V14.8908H162.656Z" fill="#0F0F15"/>
<path d="M185.358 23.2339H181.653L177.595 18.0156H176.507V14.8908H182.388V12.8284H175.536V23.2339H172.596V9.70358H185.329V18.0156H181.506L185.358 23.2339Z" fill="#0F0F15"/>
<path d="M205.061 23.2339H192.328V9.70358H205.061V12.8284H195.269V14.8908H205.061V18.0156H195.269V20.1091H205.061V23.2339Z" fill="#0F0F15"/>
<path d="M224.793 9.70358V12.8284H215.001V14.8908H224.793V23.2339H212.06V20.1091H221.853V18.0156H212.06V9.70358H224.793Z" fill="#0F0F15"/>
</svg>
